# xmcd
#
# Track frame offsets:
# 150
# 23312
# 39587
# 54475
# 70612
# 86075
# 109717
# 122902
# 137627
# 150537
#
# Disc length: 2341 seconds
#
#
# Revision: 3
# Processed by: cddbd v1.5.1PL0 Copyright (c) Steve Scherf et al.
# Submitted via: FreeRIP 2.90 
#
DISCID=7709230a
DTITLE=Ray Stevens - GreatestHits
DYEAR=1983
DGENRE=Comedy
TTITLE0=The Dooright Family
TTITLE1=Ahab the Arab
TTITLE2=The Streak
TTITLE3=Everything is Beautiful
TTITLE4=Mr. Businessman
TTITLE5=The Moonlight Special
TTITLE6=Misty
TTITLE7=Gitarzan
TTITLE8=Freddie Feelgood (and His Funky Little Five Piece Band)
TTITLE9=Shriner's Convention
EXTD=
EXTT0=
EXTT1=
EXTT2=
EXTT3=
EXTT4=
EXTT5=
EXTT6=
EXTT7=
EXTT8=
EXTT9=
PLAYORDER=
